<?xml version="1.0" encoding="UTF-8" standalone="no"?>
<!-- Created with Inkscape (http://www.inkscape.org/) -->

<svg
   xmlns:dc="http://purl.org/dc/elements/1.1/"
   xmlns:cc="http://creativecommons.org/ns#"
   xmlns:rdf="http://www.w3.org/1999/02/22-rdf-syntax-ns#"
   xmlns:svg="http://www.w3.org/2000/svg"
   xmlns="http://www.w3.org/2000/svg"
   xmlns:sodipodi="http://sodipodi.sourceforge.net/DTD/sodipodi-0.dtd"
   xmlns:inkscape="http://www.inkscape.org/namespaces/inkscape"
   width="661.48151"
   height="550.14459"
   id="svg2"
   version="1.1"
   inkscape:version="0.47 r22583"
   sodipodi:docname="other dog.svg">
  <defs
     id="defs4">
    <inkscape:perspective
       sodipodi:type="inkscape:persp3d"
       inkscape:vp_x="0 : 526.18109 : 1"
       inkscape:vp_y="0 : 1000 : 0"
       inkscape:vp_z="744.09448 : 526.18109 : 1"
       inkscape:persp3d-origin="372.04724 : 350.78739 : 1"
       id="perspective10" />
    <inkscape:perspective
       id="perspective3011"
       inkscape:persp3d-origin="0.5 : 0.33333333 : 1"
       inkscape:vp_z="1 : 0.5 : 1"
       inkscape:vp_y="0 : 1000 : 0"
       inkscape:vp_x="0 : 0.5 : 1"
       sodipodi:type="inkscape:persp3d" />
    <inkscape:perspective
       id="perspective3066"
       inkscape:persp3d-origin="0.5 : 0.33333333 : 1"
       inkscape:vp_z="1 : 0.5 : 1"
       inkscape:vp_y="0 : 1000 : 0"
       inkscape:vp_x="0 : 0.5 : 1"
       sodipodi:type="inkscape:persp3d" />
    <inkscape:perspective
       id="perspective3141"
       inkscape:persp3d-origin="0.5 : 0.33333333 : 1"
       inkscape:vp_z="1 : 0.5 : 1"
       inkscape:vp_y="0 : 1000 : 0"
       inkscape:vp_x="0 : 0.5 : 1"
       sodipodi:type="inkscape:persp3d" />
    <inkscape:perspective
       id="perspective3203"
       inkscape:persp3d-origin="0.5 : 0.33333333 : 1"
       inkscape:vp_z="1 : 0.5 : 1"
       inkscape:vp_y="0 : 1000 : 0"
       inkscape:vp_x="0 : 0.5 : 1"
       sodipodi:type="inkscape:persp3d" />
  </defs>
  <sodipodi:namedview
     id="base"
     pagecolor="#ffffff"
     bordercolor="#666666"
     borderopacity="1.0"
     inkscape:pageopacity="0.0"
     inkscape:pageshadow="2"
     inkscape:zoom="0.7"
     inkscape:cx="477.60285"
     inkscape:cy="253.26965"
     inkscape:document-units="px"
     inkscape:current-layer="layer1"
     showgrid="false"
     inkscape:window-width="1440"
     inkscape:window-height="850"
     inkscape:window-x="0"
     inkscape:window-y="25"
     inkscape:window-maximized="1" />
  <metadata
     id="metadata7">
    <rdf:RDF>
      <cc:Work
         rdf:about="">
        <dc:format>image/svg+xml</dc:format>
        <dc:type
           rdf:resource="http://purl.org/dc/dcmitype/StillImage" />
        <dc:title />
      </cc:Work>
    </rdf:RDF>
  </metadata>
  <g
     inkscape:label="Layer 1"
     inkscape:groupmode="layer"
     id="layer1"
     transform="translate(-27.84863,-483.63812)">
    <path
       style="fill:#d40000;stroke:none"
       d="m 563.56292,628.06843 c 15.61672,3.75363 31.88394,5.74688 47.74802,6.86125 15.42465,2.80105 10.40262,20.6026 13.81219,31.40419 1.71454,17.24391 24.69215,16.86521 24.85248,-0.83374 4.09535,-18.60566 -4.3432,-43.30713 -25.23902,-46.77432 -16.43383,-3.95185 -33.41253,-1.10568 -50.07946,-2.36643 -5.33908,0.639 -25.29241,6.07219 -11.09421,11.70905 z"
       id="path3613" />
    <path
       style="fill:#d27100;fill-opacity:1;stroke:none"
       d="m 420.77668,893.30023 c 15.63336,2.58122 36.28981,-5.2779 48.67693,4.13995 4.61459,10.38793 6.06826,24.5411 -2.20463,33.55812 -9.59472,8.36363 -12.73544,20.91289 -21.20239,30.08463 -12.04483,16.27199 13.12612,10.83918 22.59557,11.20057 8.64645,-2.86077 26.20794,7.51588 11.73669,12.64721 -22.13386,-0.47291 -44.4307,0.8372 -66.49325,-0.82326 -12.82128,-8.36781 -4.88314,-27.80886 -5.60422,-40.60667 3.57974,-16.77599 6.01796,-34.5711 12.4953,-50.20051 l 0,-4e-5 z"
       id="path2944" />
    <path
       style="fill:#d27100;fill-opacity:1;stroke:none"
       d="m 532.21192,875.14192 c -1.37203,-54.94096 11.91712,60.82182 16.59477,81.77365 -1.06189,10.45022 15.52866,42.56544 -3.29616,38.19034 -13.77637,-8.5576 -15.16709,-32.60621 -22.43981,-45.4077 -6.77361,-17.97832 -14.83957,-37.71297 -9.46578,-57.08324 4.68772,-9.09933 15.2341,-28.08572 18.60698,-17.47305 z"
       id="path2935"
       sodipodi:nodetypes="cccccc" />
    <path
       style="fill:#f29a25;fill-opacity:1;stroke:none"
       d="m 631.80448,525.32944 c -38.63623,18.45708 -58.35817,33.93468 -103.53732,71.72915 -6.47037,-4.49553 -15.83621,-12.13231 -19.54001,-13.307 -10.30837,-3.33432 -20.60059,-6.69457 -30.9672,-9.84421 -4.18137,4.27781 1.58466,9.86107 3.21544,14.04901 0.7841,1.22219 1.43568,2.54153 2.07767,3.90802 -68.05003,-16.38642 -18.00723,20.85779 -0.79149,43.48271 -6.17158,14.26213 -30.43264,37.05772 -44.48704,102.55686 -22.68597,39.09092 -134.57072,151.07504 -144.03687,199.54643 -5.23904,13.65708 -6.272,32.02266 -2.325,47.836 -16.44472,3.2728 -29.15637,7.04688 -51.1503,1.9293 -28.2441,-15.30371 -41.09535,-24.1316 -72.22383,-44.02697 -52.13888,-22.87843 -115.303189,-15.74678 -100.964969,49.02317 7.60909,-35.13572 75.866349,-33.40369 94.054359,-23.21648 29.22336,22.72621 36.80238,27.52104 58.85239,39.49167 23.03329,11.2772 57.57162,11.5883 81.67229,-1.7317 7.89999,9.5061 11.09453,11.6249 35.81511,10.4873 47.22112,0.2592 94.91457,2.7268 141.77636,-4.8478 16.08005,-30.63741 -45.63005,-14.87619 -56.93809,-29.38424 4.00646,-1.13978 7.9967,-2.32656 11.57559,-4.50158 6.04917,-1.97176 12.41,-4.25365 17.90756,-7.71708 13.46856,-3.40563 35.31781,-23.11097 54.26681,-45.46135 6.6124,18.98594 13.78388,38.22748 15.08785,58.76846 0.16429,10.0816 10.04468,49.81569 21.07353,26.02009 -2.72193,-47.4931 -4.77508,-52.18991 -8.40962,-99.62906 16.15497,-63.86559 41.15305,-80.69749 17.32806,-211.30771 32.30442,-32.09984 126.41887,-134.37994 80.66879,-173.85307 l -7e-5,8e-5 z"
       id="path3093"
       sodipodi:nodetypes="cccccccccccccccccccccccccccc" />
    <path
       style="fill:#004455;stroke:none"
       d="m 634.03234,518.22052 c -10.38994,8.97377 -25.47204,20.04828 -21.48786,35.75236 11.73943,11.9691 30.3048,-1.68725 40.19746,-10.64324 11.95759,-10.24772 5.8222,-35.51891 -12.1301,-28.01629 -2.2925,0.72277 -4.47778,1.74872 -6.5795,2.90717 z"
       id="path2885" />
    <path
       sodipodi:type="arc"
       style="fill:#000000;fill-opacity:1;stroke:none"
       id="path2900"
       sodipodi:cx="293.92856"
       sodipodi:cy="431.29074"
       sodipodi:rx="11.785714"
       sodipodi:ry="11.785714"
       d="m 305.71427,431.29074 a 11.785714,11.785714 0 1 1 -23.57143,0 11.785714,11.785714 0 1 1 23.57143,0 z"
       transform="matrix(1.2711875,0,0,1.2711875,176.10329,75.273704)" />
    <path
       sodipodi:type="arc"
       style="fill:#000000;fill-opacity:1;stroke:none"
       id="path2902"
       sodipodi:cx="305.71429"
       sodipodi:cy="403.07648"
       sodipodi:rx="5.7142859"
       sodipodi:ry="5.7142859"
       d="m 311.42858,403.07648 a 5.7142859,5.7142859 0 1 1 -11.42857,0 5.7142859,5.7142859 0 1 1 11.42857,0 z"
       transform="matrix(1.5829881,0,0,1.5829881,56.787131,-44.763699)" />
    <path
       sodipodi:type="arc"
       style="fill:#ffffff;fill-opacity:1;stroke:none"
       id="path2904"
       sodipodi:cx="298.92856"
       sodipodi:cy="428.55011"
       sodipodi:rx="2.5"
       sodipodi:ry="4.045085"
       d="m 301.42856,428.55011 a 2.5,4.045085 0 1 1 -5,0 2.5,4.045085 0 1 1 5,0 z"
       transform="matrix(1.2711875,0,0,1.2711875,176.10329,75.273704)" />
    <path
       sodipodi:type="arc"
       style="fill:#ffffff;fill-opacity:1;stroke:none"
       id="path2906"
       sodipodi:cx="302.5"
       sodipodi:cy="405.25153"
       sodipodi:rx="1.7857143"
       sodipodi:ry="2.8893464"
       d="m 304.28571,405.25153 a 1.7857143,2.8893464 0 1 1 -3.57142,0 1.7857143,2.8893464 0 1 1 3.57142,0 z"
       transform="matrix(1.0938178,0,0,1.0938178,212.41886,146.97173)" />
    <path
       style="fill:#ff7f2a;stroke:none;fill-opacity:1"
       d="m 381.20198,898.95376 c 8.93329,-20.20497 100.74567,10.68125 41.39674,79.66929 19.97777,-33.10649 0.53198,-90.69537 -41.39674,-79.66929 z"
       id="path2976"
       sodipodi:nodetypes="ccc" />
    <path
       style="fill:#a93600;stroke:none;fill-opacity:1"
       d="m 456.93101,604.48174 c -0.80253,0.17154 -1.26139,0.51821 -1.53352,0.93989 28.94912,14.7486 31.69226,40.2241 40.36619,26.31718 3.18408,-3.40354 12.53062,-9.99813 5.29313,-14.34583 -14.61132,-4.66497 -29.63483,-7.83591 -44.1258,-12.91124 z"
       id="path3050"
       sodipodi:nodetypes="ccccc" />
    <path
       style="fill:#c25d00;fill-opacity:1;stroke:none"
       d="m 533.00283,632.68795 c 6.25395,23.76417 33.5605,9.23222 31.65974,1.69606 -11.77607,8.65621 -22.5169,8.27402 -31.65974,-1.69606 z"
       id="path3131"
       sodipodi:nodetypes="ccc" />
    <path
       style="fill:#c25d00;fill-opacity:1;stroke:none"
       d="m 528.74864,598.48914 c 4.62696,17.58176 24.82954,6.8304 23.42328,1.25482 -8.71246,6.40424 -16.65899,6.12147 -23.42328,-1.25482 z"
       id="path3131-3"
       sodipodi:nodetypes="ccc" />
  </g>
</svg>
