<?xml version="1.0" encoding="UTF-8" standalone="no"?>
<!-- Created with Inkscape (http://www.inkscape.org/) -->
<svg
   xmlns:svg="http://www.w3.org/2000/svg"
   xmlns="http://www.w3.org/2000/svg"
   version="1.0"
   width="663"
   height="696"
   id="svg2423">
  <defs id="defs2425" />
  <g id="layer1">
    <path
       d="M 384.73553,695.47499 C 370.31428,695.10599 356.07612,692.75623 341.73553,691.52002 C 325.27553,690.28448 301.00383,683.52882 291.70073,677.59356 C 279.58383,669.86317 277.06283,663.65853 272.19343,629.5813 C 270.53463,617.97194 260.53903,581.45026 254.95103,566.5813 C 253.58333,562.94189 251.37273,555.17407 246.12913,535.5813 C 240.06613,512.92691 233.90263,481.58123 231.28363,460.0813 C 230.00363,449.57338 228.46553,444.45132 227.02323,445.89361 C 226.45843,446.45839 226.50353,449.10233 227.13923,452.69925 C 227.71093,455.93438 228.89383,463.5313 229.76783,469.5813 C 230.64183,475.6313 232.19483,483.9563 233.21883,488.0813 C 236.46852,501.67204 238.79001,515.46077 241.90443,529.0813 C 243.98053,537.73059 255.15443,575.17837 260.72833,592.16716 C 267.14653,611.72915 271.00273,627.44276 272.80723,641.3863 C 273.67523,648.09355 275.01773,656.60544 275.79043,660.30162 C 277.17573,666.92716 276.91293,669.87475 274.80853,671.31623 C 262.06673,676.75461 247.90285,676.88715 234.37583,679.11928 C 225.58143,680.65294 197.59527,682.55841 184.73554,682.4991 C 169.41118,683.12188 154.5787,680.11346 139.73554,676.99713 C 128.50515,674.71717 120.02738,670.64402 113.84171,664.55639 C 107.06381,657.88592 102.45086,649.59921 100.56393,640.70414 C 97.615155,626.80355 101.0262,615.45761 111.7853,603.3792 C 122.62861,591.20627 134.77962,586.44736 152.60308,587.39302 C 167.25398,585.19282 180.39883,594.35804 194.31285,595.53352 C 195.5394,594.77547 194.79497,581.94699 193.06799,574.0813 C 191.77623,568.19785 186.43179,522.07496 186.17349,514.5813 C 185.98661,509.15966 184.1785,483.65347 183.74003,480.25352 C 182.92215,472.87639 182.49531,465.46382 181.72846,458.0813 C 181.09256,452.36492 180.80075,432.20823 181.19001,420.88788 C 181.48266,412.37713 181.41676,412.09346 178.05389,407.38788 C 169.2867,395.12018 166.97303,380.21442 171.1373,362.828 C 173.84538,351.52141 175.61562,346.86342 179.85976,339.87681 C 183.51043,333.86716 195.45976,321.19179 199.69133,318.84027 C 208.71389,313.23698 217.75784,307.26361 227.98553,304.09208 C 231.14653,304.06483 228.18753,301.97254 214.50643,294.56079 C 195.25579,284.1318 187.12128,278.76805 178.74015,270.97717 C 161.28096,254.74757 153.47209,245.77098 143.27196,230.20515 C 139.30321,224.14868 135.30894,219.03722 134.3958,218.84636 C 132.86432,218.52625 120.20042,222.64734 109.30389,227.01177 C 102.52244,229.72797 84.584135,234.87806 74.735534,236.93634 C 53.635464,241.3461 36.162582,240.01311 28.637592,233.41956 C 25.814112,230.94557 23.923362,224.82424 24.748282,220.82784 C 26.062172,214.46255 32.433562,206.5933 38.735532,203.55228 C 41.717104,202.11353 54.216064,198.39928 59.497774,197.38248 C 63.136274,196.68202 64.048304,195.0813 60.808904,195.0813 C 55.209624,195.0813 48.119044,197.32465 36.741632,202.69582 C 31.410902,205.2124 25.308712,211.4508 22.181162,217.5813 C 19.880162,222.09163 19.262992,222.61201 15.879262,222.89487 C 11.100182,223.29436 3.9532325,219.29698 2.4246625,215.36952 C -1.5017375,205.28119 -0.86730753,201.34775 5.8588125,194.07811 C 11.834972,187.61904 26.536022,178.84879 38.235532,174.76303 C 39.060534,174.47492 38.156952,174.20367 36.227582,174.16025 C 30.882864,174.46786 26.343753,177.59573 21.485532,179.51951 C 19.484582,180.13897 19.235532,179.8712 19.235532,177.1003 C 19.235532,174.55045 20.567632,172.67649 26.569622,166.78291 C 32.692512,160.77063 35.530592,158.85133 43.754814,155.16119 C 55.945454,149.69135 68.158984,145.08974 70.499104,145.08493 C 76.004244,143.80942 81.180165,141.37658 86.735535,140.01521 C 93.312305,138.57743 110.55073,132.22047 113.23554,130.24289 C 114.61054,129.23009 116.32696,127.19529 117.04981,125.72111 C 118.19387,123.38792 118.0831,122.29875 116.19449,117.31105 C 114.73957,113.46868 113.9867,109.11081 113.90893,104.0813 C 113.74443,93.443298 117.00224,87.616358 126.71051,81.184328 C 135.16998,75.579655 139.13653,74.120205 146.36238,73.953625 C 154.409,73.768125 159.29727,76.784745 161.9635,83.581298 C 163.58271,87.708888 163.70369,90.166398 162.80927,100.76138 C 162.25654,107.30877 162.39457,111.03695 163.29059,113.76138 C 164.43548,117.24255 169.1319,123.11894 175.02086,128.43889 C 178.38895,131.48154 181.63635,143.04928 180.89045,149.34726 C 180.32976,154.08142 180.68517,155.20963 186.29338,166.49804 C 192.57205,179.13597 195.88667,184.8561 201.10783,192.0637 L 204.23554,196.38138 C 204.40464,193.1356 204.50155,189.89077 204.3724,186.64295 C 203.90096,170.16646 208.41579,154.2846 214.26573,139.0813 C 216.03373,134.42915 220.06673,128.46511 228.80423,117.5813 C 236.84293,107.56784 238.09483,106.19299 244.00933,100.88207 C 246.27513,98.847488 249.30553,94.695748 250.74353,91.655988 C 253.73643,85.329498 261.93713,77.522685 266.67513,76.489645 C 269.34513,75.907505 271.42993,74.597735 277.03343,69.982085 C 281.1835,67.189645 285.52337,64.676055 289.73553,61.966815 C 295.54034,57.777119 302.24983,55.421937 308.73553,52.579125 C 314.84303,49.857955 321.18663,47.643845 327.48553,46.034765 C 337.59407,43.230961 323.81995,42.651855 328.62443,33.409875 L 333.97123,26.689535 L 340.35333,29.455435 C 354.83203,35.730175 356.87133,36.389515 359.64623,35.693075 C 367.24414,32.255086 373.77027,26.2886 380.27033,21.095045 C 387.99756,15.160835 395.34303,8.7203454 403.64553,3.5811954 L 408.52523,0.72150536 L 407.63033,9.1513954 C 407.13823,13.787845 406.84313,22.981295 406.97463,29.581295 C 407.24513,43.153775 407.71643,44.062395 415.58273,46.174035 C 419.25183,47.158985 421.30593,47.871415 429.73553,51.082615 C 436.84703,53.791695 450.28623,60.881965 456.92613,65.427785 C 465.5399,70.294661 473.14318,76.341468 480.79533,82.533778 L 498.73553,99.222818 L 506.23553,98.744218 C 523.69475,96.377728 541.14333,93.070168 558.23553,88.711028 C 568.62373,85.886208 580.36373,83.081298 581.79893,83.081298 C 582.58903,83.081298 583.23553,83.747688 583.23553,84.562168 C 583.23553,85.376658 577.21433,98.314158 569.85513,113.31217 C 560.94927,130.49827 553.14899,148.10704 547.39313,166.5813 C 537.55193,199.4342 535.26153,213.17727 534.90053,241.53932 L 534.73553,254.49734 C 525.27895,260.28852 514.77524,263.5527 505.32283,269.37609 L 500.91013,272.40131 C 503.26407,274.5529 505.60518,276.7146 508.36193,278.33177 C 511.08046,282.10825 498.08327,281.73762 496.25513,281.82171 C 484.35249,281.25799 474.22117,287.32614 463.49203,291.50459 C 448.01213,297.37424 454.03853,297.2157 501.89963,290.49414 C 531.05203,286.40002 543.09593,283.73429 544.78443,281.00227 C 545.97443,279.07668 553.00703,276.25052 563.01343,273.67663 C 581.48113,268.92627 591.80913,262.6913 604.96353,248.35139 C 609.72125,242.41637 615.58233,238.37451 622.26833,235.09759 C 633.29893,229.61419 643.08973,236.3714 646.84283,252.05796 C 648.67153,259.70116 648.57243,268.56908 646.61223,272.69986 C 644.28563,277.60295 640.54163,279.84969 629.38283,283.03921 C 617.29553,286.4941 610.40833,289.4675 609.59723,291.58118 C 608.77503,293.72374 611.99393,297.00575 620.62663,302.82691 C 627.00063,307.12497 643.70453,322.77331 648.73553,329.15957 C 658.37703,341.39823 664.11173,355.27001 662.74253,363.0417 C 661.44383,370.41334 660.10723,369.88673 651.97403,358.79905 C 648.25513,353.72929 642.04743,346.2063 638.17903,342.0813 C 632.74203,336.2837 633.36893,337.21583 640.94053,346.18783 C 646.32783,352.57142 652.95183,361.48705 655.66053,366.00033 C 660.08983,373.38021 660.57093,374.76335 660.44003,379.7396 C 660.01766,389.39944 655.80167,397.7381 645.90653,399.0813 C 643.70293,399.0813 643.46923,398.59558 642.95733,392.94959 C 642.37433,386.52027 637.80763,376.10532 635.18873,375.23235 C 634.21363,374.90733 634.37103,375.63317 635.71863,377.67563 C 644.80633,391.44944 644.20133,400.86095 633.92053,405.64768 C 610.96839,414.00262 594.39684,394.87795 577.20983,382.98357 C 560.1478,370.90463 540.10668,360.98936 527.23553,343.9163 C 527.23553,342.7937 521.89163,342.85427 519.03263,344.00927 C 508.65398,346.63782 498.2446,349.40318 487.73553,351.48907 C 478.45433,353.17146 469.0619,354.08688 459.73553,355.46417 C 443.92583,357.96808 424.60213,359.10934 398.73553,359.06686 C 373.30493,359.02509 360.89543,358.14433 348.23553,355.48263 C 335.73903,352.85529 334.13923,353.22565 325.44353,360.75893 C 321.20413,364.43162 317.36233,368.05547 316.90623,368.81193 C 317.96457,378.76381 319.59961,388.78503 318.33513,399.05265 C 316.31603,408.46708 309.23673,421.91089 302.87703,428.40774 C 297.53753,433.86238 297.21243,434.46861 297.78243,437.90774 C 299.55693,448.61516 315.52743,500.99907 320.24353,511.5813 C 326.73361,527.95127 331.55425,544.92587 338.13283,561.26153 C 343.13833,572.17962 347.27953,582.34119 348.22623,586.02806 C 349.42453,590.6951 354.48323,604.77376 356.33003,608.5813 C 358.07113,612.17095 356.32973,612.11161 387.45563,609.64187 C 403.49765,607.63988 419.52178,607.6952 434.74323,613.54227 C 441.97703,616.74142 449.46653,624.50089 453.60243,633.0813 C 456.43723,638.96242 456.73553,640.48581 456.73553,649.0813 C 456.73553,657.51612 456.41053,659.25405 453.83713,664.5813 C 449.85563,672.82351 443.35043,680.86413 437.23553,685.10156 C 433.57498,688.5502 429.42515,690.47295 424.95033,692.5126 C 421.13173,694.98032 393.82153,696.99211 384.73553,695.47499 z M 369.23553,576.52722 C 355.62503,573.60601 345.00903,567.8509 340.73133,561.07466 C 338.30763,557.23526 333.70373,545.57555 325.53213,522.5813 C 320.09883,507.29265 305.83803,461.4938 306.78463,460.5472 C 307.64003,459.69184 309.92591,462.25606 311.93931,466.19044 C 313.56311,469.36343 327.69893,489.64867 333.23553,497.56942 C 339.75983,506.9032 354.13543,515.56501 365.92333,517.26499 C 377.91813,518.99482 385.85943,517.77031 393.13253,513.06947 C 400.51153,508.30024 401.55733,506.70761 404.22713,496.17487 C 407.17903,484.52929 413.10423,477.60659 424.73553,472.2138 C 430.03553,469.75648 440.66633,468.33447 447.12933,469.21834 C 459.83693,470.95621 472.89193,480.66266 476.67633,491.1866 C 479.22113,498.26368 478.38373,512.66201 474.83003,522.93164 C 470.74553,534.73475 459.04743,550.83986 449.21233,558.20012 C 438.74833,566.03101 418.56953,573.21408 397.73553,576.52434 C 385.83283,578.41553 378.03733,578.41632 369.23553,576.52722 z"
       id="body" style="fill:#000000" />
    <path
       d="M 357.84375,47.25 C 349.9649,47.445672 323.61277,54.357721 312.4375,59.15625 L 305.40625,62.1875 L 309.9375,66.59375 C 313.24021,69.822792 314.43751,72.275339 314.4375,75.8125 C 314.4375,78.469271 313.78572,80.65625 313,80.65625 C 312.21429,80.65625 311.56249,79.977665 311.5625,79.15625 C 311.5625,78.334822 309.99107,76.084807 308.0625,74.15625 C 304.2295,70.323336 299.03046,69.713405 291.84375,72.21875 L 287.375,73.75 L 296.96875,83.5 C 302.24518,88.852771 307.16315,93.295145 307.875,93.375 C 308.58672,93.454829 316.93492,88.481281 326.4375,82.34375 C 335.93993,76.206222 346.05509,69.787311 348.90625,68.0625 C 356.05767,63.736243 366.1675,52.465712 365.5625,49.5 C 365.16779,47.565057 363.58934,47.107287 357.84375,47.25 z M 410.125,58.125 C 407.67154,58.220712 405.03896,58.581391 401.5625,59.15625 C 381.6465,62.449507 348.99506,76.389658 324.5625,92.0625 C 311.54879,100.41044 308.72646,103.62348 308.71875,109.90625 C 308.70547,120.64863 298.51044,129.2102 285.75,129.21875 C 273.852,129.22674 265.44233,125.72107 255.71875,116.71875 C 247.29204,108.91711 247.19828,108.8688 244.25,111.53125 C 238.66743,116.57238 227.39222,131.62422 223.6875,139 C 219.25822,147.81849 213.03526,174.24418 213.03125,184.21875 C 213.02497,199.47915 222.45163,228.35993 233.6875,247.53125 C 245.72207,268.0651 259.68685,280.82576 277.75,287.78125 C 296.47614,294.99203 327.36749,302.32315 346.5625,304.09375 C 349.70536,304.38366 359.35715,304.31851 368,303.96875 C 406.443,302.41324 455.59826,290.2103 478.78125,276.4375 C 502.02897,262.62629 518.71875,233.94785 518.71875,207.8125 C 518.71875,197.76228 516.82664,193.46447 509.1875,186.09375 C 498.13692,175.43155 480.48929,169.91937 453,168.53125 C 422.868,167.00968 396.84414,158.6362 385.875,146.96875 C 383.125,144.0437 381.82143,142.01569 383,142.46875 C 384.17857,142.9218 390.60266,145.58148 397.28125,148.375 C 408.69225,153.14797 410.39085,153.47545 425.25,153.5 C 443.35371,153.52993 451.95921,151.47341 462.0625,144.78125 C 470.14707,139.42628 478.08973,129.50276 480.375,121.875 C 484.14843,109.28051 474.60415,89.569116 458.375,76.4375 C 446.07185,66.482643 438.22666,62.642021 424.4375,59.84375 C 417.87089,58.511169 414.2141,57.965479 410.125,58.125 z M 412.4375,111.34375 C 422.84593,121.66981 427.61401,130.21214 427,137.4375 C 426.37843,144.75066 423.29597,145.06485 422.15625,137.9375 C 420.43439,127.16955 407.59098,114.61432 388.78125,105.25 C 373.61401,95.023511 355.8013,98.594538 338.71875,98.875 C 338.71875,96.657643 349.40825,93.53165 359.90625,92.65625 C 380.0046,90.253689 397.54224,98.502945 412.4375,111.34375 z M 245.03125,130.0625 C 249.74111,143.06976 253.30547,147.93108 267.71875,161.0625 C 283.36289,175.31528 289.33154,179.47832 308.90625,189.8125 C 325.51082,198.57866 336.86097,202.56739 367.15625,210.28125 C 386.65239,215.24537 389.34361,215.58913 408.71875,215.5 C 429.72375,215.40336 439.88315,213.58705 454.75,207.34375 L 460.0625,205.125 L 458.71875,185.65625 L 461.4375,193.90625 C 464.9585,204.60799 469.41109,210.28171 481.53125,219.53125 C 486.9641,223.67742 491.45672,227.56697 491.5,228.15625 C 491.67243,230.50395 486.35648,228.97285 477.59375,224.15625 C 472.52361,221.36939 468.21257,219.26673 468,219.5 C 467.78757,219.73329 462.95852,227.82595 457.28125,237.46875 C 442.74239,262.16335 430.99384,274.42733 413.90625,282.78125 C 404.66897,287.29729 397.09429,289.83926 388,291.4375 C 380.92857,292.68027 364.23214,293.94785 350.875,294.28125 C 330.89885,294.7799 324.29432,294.43202 313.71875,292.21875 C 281.14232,285.40113 272.55148,281.67697 261.59375,269.6875 C 248.64533,255.51988 241.26168,237.71053 238.65625,214.34375 C 236.80797,197.76798 238.38789,185.0208 244.46875,167.03125 L 248.5625,154.90625 L 244.1875,145.5625 C 239.90465,136.41036 237.9784,123.64879 240.65625,122.09375 C 241.97922,122.06176 243.97489,127.33932 245.03125,130.0625 z M 269.4375,251.875 C 260.57922,255.90455 259.55227,257.89298 263.375,263.53125 C 271.42157,275.39903 296.25738,286.43867 324.15625,290.53125 C 337.30725,292.46042 357.04367,292.23739 371.03125,289.96875 C 387.6184,287.27847 388.71875,286.80029 388.71875,282.5 C 388.71875,276.1364 384.1634,270.70101 375.15625,266.3125 C 360.70525,259.2716 350.69446,257.4456 329.59375,258.0625 C 312.42689,258.56439 309.92903,259.0094 299.59375,263.25 C 293.39389,265.79376 287.91623,267.48095 287.4375,267 C 286.62636,266.1852 290.12315,262.8568 296.375,258.46875 C 299.70357,256.13257 298.35066,253.80689 292.15625,251.21875 C 284.77383,248.31577 276.7044,249.01528 269.4375,251.875 z"
       id="face" style="fill:#ffffff" />
  </g>
</svg>
