<?xml version="1.0" encoding="UTF-8" standalone="no"?>
<!-- Created with Inkscape (http://www.inkscape.org/) -->

<svg
   xmlns:dc="http://purl.org/dc/elements/1.1/"
   xmlns:cc="http://creativecommons.org/ns#"
   xmlns:rdf="http://www.w3.org/1999/02/22-rdf-syntax-ns#"
   xmlns:svg="http://www.w3.org/2000/svg"
   xmlns="http://www.w3.org/2000/svg"
   xmlns:sodipodi="http://sodipodi.sourceforge.net/DTD/sodipodi-0.dtd"
   xmlns:inkscape="http://www.inkscape.org/namespaces/inkscape"
   id="svg3039"
   version="1.1"
   inkscape:version="0.48.2 r9819"
   width="284"
   height="342"
   sodipodi:docname="STAR WARS - R2D2.svg">
  <metadata
     id="metadata3045">
    <rdf:RDF>
      <cc:Work
         rdf:about="">
        <dc:format>image/svg+xml</dc:format>
        <dc:type
           rdf:resource="http://purl.org/dc/dcmitype/StillImage" />
        <dc:title></dc:title>
      </cc:Work>
    </rdf:RDF>
  </metadata>
  <defs
     id="defs3043">
    <inkscape:path-effect
       effect="spiro"
       id="path-effect3792"
       is_visible="true" />
    <inkscape:path-effect
       effect="spiro"
       id="path-effect3503"
       is_visible="true" />
  </defs>
  <sodipodi:namedview
     pagecolor="#ffffff"
     bordercolor="#666666"
     borderopacity="1"
     objecttolerance="10"
     gridtolerance="10"
     guidetolerance="10"
     inkscape:pageopacity="0"
     inkscape:pageshadow="2"
     inkscape:window-width="1280"
     inkscape:window-height="712"
     id="namedview3041"
     showgrid="false"
     inkscape:zoom="2.050894"
     inkscape:cx="161.29547"
     inkscape:cy="129.17633"
     inkscape:window-x="0"
     inkscape:window-y="0"
     inkscape:window-maximized="1"
     inkscape:current-layer="svg3039" />
  <path
     style="fill:#000000"
     d="M 135.78125 18.71875 C 120.24841 18.894066 105.15437 25.691521 95.4375 38.5625 C 89.94359 45.839732 84.22131 58.13616 81.65625 68.21875 C 79.96201 74.87836 77.67135 90.71841 77.59375 96.3125 C 77.58118 97.2191 75.091705 97.5625 68.53125 97.5625 C 60.260768 97.5625 59.275502 97.75574 57.03125 100 L 54.59375 102.46875 L 54.59375 131.5625 C 54.59375 150.16999 54.978199 161.3893 55.65625 162.65625 C 56.239691 163.74642 57.814691 165.05244 59.15625 165.5625 L 61.59375 166.5 L 61.59375 182.84375 L 61.59375 199.1875 L 58.59375 201.40625 L 55.59375 203.625 L 55.59375 218.03125 C 55.59375 226.55992 56.001935 232.69674 56.59375 233.0625 C 58.356625 234.15202 57.632703 238.69694 53.09375 255.46875 C 50.651521 264.49298 48.901185 272.25548 49.1875 272.71875 C 50.020659 274.06683 88.97906 273.77094 90.34375 272.40625 C 90.97812 271.77188 94.50862 264.12188 98.1875 255.40625 L 104.875 239.5625 L 108.96875 239.625 C 111.228 239.6567 114.89375 239.98517 117.09375 240.375 C 120.9009 241.04961 121.20628 241.36091 123.21875 247.03125 C 125.8803 254.53046 125.67083 265.4721 122.78125 271.21875 C 121.72109 273.32714 120.35238 276.6375 119.75 278.5625 C 118.1474 283.6838 113.36417 318.35076 114.09375 319.53125 C 114.48079 320.1575 123.18578 320.5625 137.15625 320.5625 L 159.59375 320.5625 L 159.59375 318.09375 C 159.59375 314.46396 154.78192 282.94818 153.5 278.1875 C 152.8905 275.92397 151.4453 272.2656 150.3125 270.0625 C 147.41534 264.42807 147.31567 255.75017 150.0625 247.5625 L 152.25 241.0625 L 158.96875 240.125 C 164.35689 239.39175 165.93685 239.49064 166.96875 240.625 C 167.67621 241.40271 170.85216 248.3625 174 256.0625 C 177.14784 263.7625 180.62202 270.85 181.75 271.8125 C 183.54959 273.34808 186.19449 273.5625 203.15625 273.5625 C 213.78786 273.5625 222.69493 273.19305 222.96875 272.75 C 223.24257 272.30695 221.41946 264.31945 218.90625 255 C 214.34393 238.08205 214.34067 238.03321 215.96875 233.40625 C 217.13298 230.09753 217.59375 225.31178 217.59375 216.625 L 217.59375 204.4375 L 213.9375 201.09375 L 210.28125 197.75 L 210.875 181.40625 C 211.28963 170.25802 211.85376 164.955 212.65625 164.6875 C 213.30281 164.47198 214.6875 163.46875 215.71875 162.4375 C 217.46844 160.68781 217.59375 158.54793 217.59375 130.65625 C 217.59375 94.168304 218.33492 96.23896 204.8125 95.71875 L 195.875 95.375 L 195.25 88 C 193.19547 63.69492 183.25251 40.667481 170.46875 30.5625 C 160.20596 22.450229 147.86235 18.582393 135.78125 18.71875 z M 195.59375 164.5625 L 199.59375 164.5625 L 203.59375 164.5625 L 203.59375 182.5625 L 203.59375 200.5625 L 200.25 200.5625 C 198.41666 200.5625 196.61666 200.24167 196.25 199.875 C 195.88333 199.50834 195.59375 191.40834 195.59375 181.875 L 195.59375 164.5625 z M 68.59375 166.5625 L 73.09375 166.5625 L 77.59375 166.5625 L 77.59375 183.5625 L 77.59375 200.5625 L 73.75 200.5625 C 71.641666 200.5625 69.616666 200.24167 69.25 199.875 C 68.883333 199.50834 68.59375 191.85834 68.59375 182.875 L 68.59375 166.5625 z "
     id="path3435" />
  <path
     style="fill:#0000ff"
     d="M 140.0625 24.5625 C 137.02794 24.594386 133.46232 24.817671 129.625 25.21875 C 123.68732 25.839361 123.27929 26.038633 121.9375 29.25 C 120.52616 32.627818 118.48956 48.389142 119.28125 49.8125 C 119.51068 50.225 127.33871 50.5625 136.65625 50.5625 C 151.04823 50.5625 153.59375 50.336805 153.59375 49.0625 C 151.74137 43.963573 153.94166 35.836165 149.4375 25.875 C 148.6873 24.971064 145.1201 24.50936 140.0625 24.5625 z M 136.34375 25.625 C 142.01187 25.397992 147.59375 29.331086 147.59375 35.75 C 147.59375 40.710502 146.31059 43.125353 142.625 45.03125 C 137.5602 47.650358 132.85691 47.013162 129 43.15625 C 124.68306 38.839306 124.3869 34.135868 128.15625 29.65625 C 130.39438 26.996384 133.37474 25.743909 136.34375 25.625 z M 123.6875 44.21875 C 124.27532 44.209521 124.92664 44.458064 125.46875 45 C 126.22135 45.752331 126.52879 46.865971 126.15625 47.46875 C 125.15022 49.096544 122.60905 48.768981 121.90625 46.9375 C 121.32014 45.410125 122.39429 44.23905 123.6875 44.21875 z M 109.84375 53.59375 C 108.37353 53.638606 106.73131 53.955895 105.65625 54.53125 C 104.40647 55.200112 103.45581 57.61562 102.625 62.28125 C 101.96115 66.0093 101.20092 69.85 100.9375 70.8125 C 100.51376 72.36078 101.29287 72.5625 107.625 72.5625 L 114.78125 72.5625 L 114.0625 63.8125 C 113.67173 59 113.14732 54.725 112.90625 54.3125 C 112.59474 53.77945 111.31397 53.54889 109.84375 53.59375 z M 95.21875 54.5625 C 92.13075 54.5625 91.18959 55.813251 88.8125 63.0625 C 85.09342 74.40438 85.08156 74.5625 88.875 74.5625 C 90.70536 74.5625 92.93613 74 93.84375 73.3125 C 94.82741 72.5674 95.91528 69.43705 96.53125 65.5625 C 98.10354 55.672582 97.98599 54.5625 95.21875 54.5625 z M 124.15625 55.5625 C 119.79949 55.5625 117.87144 66.8402 121.59375 70.5625 C 122.69375 71.6625 124.04375 72.5625 124.59375 72.5625 C 125.14375 72.5625 126.49375 71.6625 127.59375 70.5625 C 131.71425 66.442 129.22263 55.5625 124.15625 55.5625 z M 146.40625 55.5625 C 135.54947 55.5625 134.59375 56.19579 134.59375 63.46875 C 134.59375 66.95399 135.0905 69.71861 135.84375 70.34375 C 138.54591 72.58634 153.04353 72.31609 155.53125 69.96875 C 157.31234 68.28816 157.35966 59.15899 155.59375 57.03125 C 154.68671 55.938275 152.22699 55.5625 146.40625 55.5625 z M 181.9375 56.25 C 180.63704 56.160383 179.36675 61.652822 179.21875 68.34375 C 179.08488 74.39589 180.1083 75.50764 185.78125 75.53125 L 189.4375 75.5625 L 186.375 66.3125 C 184.67879 61.225 182.7898 56.73963 182.1875 56.34375 C 182.10085 56.2868 182.0242 56.256 181.9375 56.25 z M 146.25 57.4375 C 149.54417 57.521669 152.59375 60.093494 152.59375 64.21875 C 152.59375 70.48181 144.61825 72.94312 140.65625 67.90625 C 139.51633 66.45708 138.59375 64.73916 138.59375 64.0625 C 138.59375 63.38585 139.51633 61.63667 140.65625 60.1875 C 142.19369 58.23296 144.2735 57.387 146.25 57.4375 z M 136.53125 78.1875 C 111.27451 78.328296 84.62335 79.675344 81.46875 81.625 C 78.56166 83.42168 81.989863 83.64075 93.25 82.375 C 109.4441 80.55463 164.30819 80.83633 178.59375 82.8125 C 192.62545 84.75356 192.59375 84.75261 192.59375 83.125 C 192.59375 81.41336 190.61163 80.99484 175.09375 79.375 C 166.34591 78.46186 151.68529 78.10302 136.53125 78.1875 z M 130.1875 93.21875 C 112.20843 93.323613 105.59375 94.096965 105.59375 95.875 C 105.59375 96.76907 113.13795 97.02024 136.0625 96.96875 C 152.82922 96.93105 166.85919 96.60956 167.21875 96.25 C 169.2409 94.22786 160.47218 93.29826 138.59375 93.21875 C 135.54718 93.20767 132.75594 93.20377 130.1875 93.21875 z M 136.53125 105.0625 C 122.94749 105.05941 109.38548 105.50842 107.71875 106.4375 C 106.2098 107.27861 105.73147 108.03239 106.4375 108.46875 C 107.79698 109.30895 166.31088 109.15788 167.15625 108.3125 C 167.48636 107.9824 166.7221 107.13237 165.4375 106.4375 C 163.71853 105.50767 150.11501 105.0655 136.53125 105.0625 z M 137.53125 117.59375 L 122.71875 117.625 C 108.94641 118.30284 104.01739 119.29864 105.8125 121.09375 C 106.55763 121.83898 166.66025 121.80852 167.40625 121.0625 C 169.01307 119.45567 164.65083 118.51031 152.0625 117.71875 L 137.53125 117.59375 z M 138.1875 163.65625 C 137.51329 163.65135 136.75547 163.6958 135.90625 163.75 L 131.09375 164.0625 L 130.8125 172.46875 C 130.65128 177.09778 130.74984 181.48528 131.03125 182.21875 C 131.81129 184.25149 142.1762 184.03411 142.96875 181.96875 C 143.3026 181.09877 143.59375 177.10642 143.59375 173.09375 C 143.59375 165.4712 142.90694 163.68995 138.1875 163.65625 z M 184.03125 196.5625 C 177.90233 196.5625 174.43801 205.5803 178.5625 210.8125 C 181.55082 214.60339 186.83737 214.66732 189.28125 210.9375 C 192.93646 205.35894 189.72082 196.5625 184.03125 196.5625 z M 137.46875 196.78125 C 136.21181 196.76083 134.86274 197.01634 133.46875 197.59375 C 127.42743 200.09615 125.96392 208.81135 130.84375 213.25 C 134.75007 216.80315 137.36353 217.23494 141.625 215.03125 C 151.00566 210.18032 146.26731 196.92417 137.46875 196.78125 z "
     id="path3429" />
  <path
     style="fill:#4d4d4d"
     d="m 136.95798,27.557028 c 3.7488,0 4.8535,0.474399 7.03125,3.0625 1.42389,1.692199 2.59375,4.146898 2.59375,5.4375 0,1.290602 -1.16986,3.714051 -2.59375,5.40625 -2.17775,2.588101 -3.28245,3.09375 -7.03125,3.09375 -5.78561,0 -9.375,-3.24914 -9.375,-8.5 0,-5.25086 3.58939,-8.5 9.375,-8.5 z"
     id="path3425" />
  <path
     style="fill:#4d4d4d"
     d="m 168.22598,56.622779 c 5.28417,0 9.34729,7.572744 6.38994,11.894898 -2.88881,4.221917 -8.19864,3.336531 -10.96052,-1.776162 -3.09217,-5.724069 -1.1046,-10.118736 4.57058,-10.118736 z"
     id="path3411"
     inkscape:connector-curvature="0" />
  <path
     style="fill:#ff0000"
     d="m 146.08298,58.557028 c 2.3719,0 5.5,3.2509 5.5,5.71875 0,0.70262 -0.9,2.18125 -2,3.28125 -1.1,1.1 -2.675,2 -3.5,2 -1.83153,0 -5.5,-3.52382 -5.5,-5.28125 0,-2.46785 3.1281,-5.71875 5.5,-5.71875 z"
     id="path3395" />
  <path
     style="fill:#ffffff"
     d="M 136.875 82.25 C 122.82637 82.172399 108.59722 82.58477 98.59375 83.5 C 81.217413 85.08979 79.59375 85.59711 79.59375 89.1875 L 79.59375 91.84375 L 86.34375 91.21875 C 113.29312 88.68409 121.91237 88.32498 144.59375 88.9375 C 158.06875 89.3014 173.59375 90.20911 179.09375 90.9375 C 194.27621 92.9482 193.59375 93.0028 193.59375 89.5625 C 193.59375 85.9674 194.09959 86.13524 174.09375 83.9375 C 164.79175 82.915625 150.92363 82.3276 136.875 82.25 z M 134.75 90.3125 C 115.94384 90.347077 96.84112 91.340064 83.84375 93.1875 L 79.59375 93.78125 L 79.59375 156.53125 C 79.59375 205.54998 79.8675 219.51127 80.84375 220.28125 C 81.53125 220.82349 90.193746 222.25767 100.09375 223.46875 C 109.99375 224.67983 118.99375 225.85907 120.09375 226.0625 C 126.20681 227.19297 164.29408 225.38602 178.09375 223.3125 L 193.09375 221.0625 L 193.34375 157.78125 C 193.54765 107.66862 193.33975 94.40328 192.34375 94.0625 C 191.65214 93.82583 183.89375 92.90485 175.09375 92 C 163.82166 90.840962 149.37701 90.28561 134.75 90.3125 z M 135.34375 91.59375 C 145.12535 91.534084 154.89998 91.6707 158.9375 92.0625 C 169.21907 93.06023 169.75918 93.2742 169.40625 96.25 L 169.09375 98.90625 L 138.0625 99.25 C 111.90389 99.55206 106.73727 99.39947 105.0625 98.15625 C 101.54831 95.5476 104.26844 93.17845 111.6875 92.375 C 115.76236 91.933715 125.56215 91.65342 135.34375 91.59375 z M 182.59375 95.625 C 184.76923 95.625 186.94848 96.09458 188.375 97.09375 L 190.59375 98.65625 L 190.59375 141.46875 C 190.59375 181.65137 190.46738 184.35205 188.75 185.90625 C 186.17615 188.23555 178.41755 188.11387 176.25 185.71875 C 174.76451 184.07731 174.59375 179.53122 174.59375 141.28125 L 174.59375 98.65625 L 176.8125 97.09375 C 178.23902 96.09458 180.41827 95.625 182.59375 95.625 z M 88.71875 96.53125 C 89.58174 96.51782 90.57166 96.5625 91.71875 96.5625 C 99.87678 96.5625 99.59375 94.840104 99.59375 142.78125 C 99.59375 183.22541 99.52995 184.62633 97.59375 186.5625 C 94.63076 189.52549 88.20123 189.26373 85 186.0625 L 82.53125 183.59375 L 82.8125 141.5 C 83.09259 99.622424 82.67785 96.62526 88.71875 96.53125 z M 208.4375 97.53125 C 207.19167 97.51572 205.74684 97.5625 204.09375 97.5625 L 195.59375 97.5625 L 195.59375 100.3125 C 195.60075 101.825 196.77453 106.66249 198.1875 111.0625 C 199.77301 115.99976 200.97267 122.50337 201.3125 128.0625 C 201.86672 137.12847 200.84891 143.0254 196.1875 157.8125 L 194.6875 162.5625 L 204.09375 162.5625 C 212.66914 162.5625 213.61042 162.37227 215.03125 160.34375 C 216.35109 158.45942 216.59375 153.81863 216.59375 129.84375 C 216.59375 99.963527 217.15831 97.639944 208.4375 97.53125 z M 181.03125 97.5625 C 177.92103 97.648165 177.32114 98.129622 176.5625 100.125 C 175.98956 101.63196 175.59375 118.72708 175.59375 141.5625 C 175.59375 164.39792 175.98956 181.49304 176.5625 183 C 177.42952 185.28043 178.09541 185.5625 182.53125 185.5625 C 186.44083 185.5625 187.75138 185.14059 188.5625 183.625 C 189.22675 182.38384 189.59375 167.3138 189.59375 141.5625 C 189.59375 115.8112 189.22675 100.74116 188.5625 99.5 C 187.75138 97.98441 186.44083 97.5625 182.53125 97.5625 C 181.97677 97.5625 181.47557 97.55026 181.03125 97.5625 z M 91.5625 97.625 C 89.89314 97.649587 88.19782 98.123435 86.8125 99.09375 C 81.087768 103.12525 85.93884 132.66681 84.59375 141.6875 C 84.59375 168.04372 84.95969 183.38187 85.625 184.625 C 86.98426 187.16482 94.68253 187.3603 96.71875 184.90625 C 97.8333 183.56299 98.09375 175.45493 98.09375 141.8125 C 98.09375 101.95862 98.02368 100.33405 96.15625 98.96875 C 94.88264 98.037595 93.23186 97.60041 91.5625 97.625 z M 68.09375 99.5625 C 63.320053 99.649448 58.469666 100.06158 57.78125 100.75 C 56.900809 101.63044 56.59375 109.99281 56.59375 132.1875 C 56.59375 159.94235 56.738114 162.53355 58.34375 163.46875 C 59.30625 164.02936 64.25625 164.51455 69.34375 164.53125 L 78.59375 164.5625 L 78.59375 161.6875 C 78.59375 160.10915 77.69553 155.98013 76.59375 152.53125 C 71.90101 137.8417 71.777926 128.30541 76.125 110.75 C 77.423973 105.50416 78.28286 100.83269 78 100.375 C 77.586935 99.706643 72.867447 99.47555 68.09375 99.5625 z M 136.53125 103.71875 C 148.60351 103.72174 160.80844 103.93976 164.09375 104.375 C 168.61158 104.97351 169.12034 105.32768 169.40625 107.8125 C 169.58028 109.325 169.35525 110.56206 168.90625 110.5625 C 168.45722 110.56293 153.98471 110.67543 136.75 110.8125 C 111.61625 111.01238 105.19974 110.78856 104.3125 109.71875 C 102.47496 107.50306 104.8702 105.11598 109.6875 104.375 C 112.50723 103.94128 124.45899 103.71575 136.53125 103.71875 z M 152.15625 116.6875 C 167.08719 116.54559 170.16349 117.32398 169.4375 121.09375 C 169.08409 122.92885 167.746 123.0151 136.84375 123.125 C 119.11785 123.188 104.37494 122.99994 104.09375 122.71875 C 102.68833 121.31332 103.84985 118.40814 106.15625 117.53125 C 107.56705 116.99486 115.32955 116.63465 123.40625 116.71875 L 136.875 116.84375 C 141.96896 116.84375 147.06243 116.7173 152.15625 116.6875 z M 211.1875 118.96875 C 211.32855 119.00359 211.50858 119.75966 211.75 121.0625 C 212.83194 126.90134 212.05633 144.32275 210.5625 147.71875 L 209.53125 150.0625 L 210.0625 147.5625 C 210.3455 146.1875 210.6153 138.5375 210.6875 130.5625 C 210.76275 122.25038 210.87719 118.89215 211.1875 118.96875 z M 61.75 119.71875 C 62.123587 119.68233 62.40715 124.85257 62.46875 133.3125 C 62.53382 142.25 62.415399 149.5625 62.21875 149.5625 C 62.022101 149.5625 61.572101 146.78693 61.21875 143.40625 C 60.404985 135.62056 60.601055 123.96373 61.59375 120.0625 C 61.65052 119.83938 61.69663 119.72375 61.75 119.71875 z M 160.15625 129.0625 C 160.6001 129.0575 161.08798 129.0625 161.59375 129.0625 C 169.68737 129.0625 169.5803 128.72298 169.5625 158.5 C 169.5545 172.55738 169.21658 184.55108 168.8125 185.15625 C 166.96017 187.93035 161.48527 189.23454 157.59375 187.84375 C 153.82868 186.49815 153.59375 184.80169 153.59375 158.5625 C 153.59375 130.58694 153.49847 129.1344 160.15625 129.0625 z M 111.15625 129.53125 C 111.6454 129.53562 112.1925 129.5625 112.75 129.5625 C 120.66134 129.5625 120.72622 129.83215 120.375 160.03125 C 120.09493 184.11214 119.97628 185.79541 118.15625 187.125 C 115.1349 189.3322 108.26803 188.94365 106 186.4375 C 104.2296 184.48123 104.09375 182.51545 104.09375 158.375 C 104.09375 132.4296 103.88501 129.8076 109.8125 129.5625 C 110.23589 129.545 110.6671 129.52688 111.15625 129.53125 z M 160.59375 130.5625 C 154.64925 130.69261 154.59375 132.53737 154.59375 158.625 C 154.59375 186.45688 154.60023 186.5625 161.59375 186.5625 C 164.46121 186.5625 165.87837 185.98972 167.03125 184.34375 C 168.33322 182.48492 168.59375 178.26314 168.59375 158.5625 C 168.59375 131.75247 168.31703 130.5625 161.875 130.5625 C 161.42465 130.5625 160.99005 130.5535 160.59375 130.5625 z M 111.71875 130.625 C 110.02818 130.73844 108.44118 131.28215 107.40625 132.21875 C 105.72696 133.73848 105.59375 135.90991 105.59375 159 C 105.59375 177.2239 105.91155 184.47405 106.78125 185.34375 C 107.44125 186.00375 109.83875 186.5625 112.09375 186.5625 C 114.34875 186.5625 116.715 186.00375 117.375 185.34375 C 118.24623 184.47252 118.59375 177.08097 118.59375 158.375 C 118.59375 133.92554 118.49181 132.57609 116.65625 131.59375 C 115.21647 130.82321 113.40932 130.51156 111.71875 130.625 z M 132.125 131.5625 C 133.41288 131.5428 134.88877 131.5625 136.59375 131.5625 C 150.26809 131.5625 149.59375 130.06499 149.59375 160.40625 C 149.59375 190.13745 150.10623 188.8942 137.75 189.28125 C 133.54355 189.41302 129.1078 189.10546 127.90625 188.59375 C 123.92394 186.89777 123.59375 184.66998 123.59375 159.625 C 123.59375 133.85879 123.10984 131.7007 132.125 131.5625 z M 137.15625 133.03125 C 132.74004 133.11386 128.22164 133.63112 127.25 134.4375 C 125.793 135.64671 125.59375 138.75018 125.59375 160.625 C 125.59375 183.21563 125.75144 185.54132 127.34375 186.46875 C 129.84334 187.92463 144.89407 187.82468 146.375 186.34375 C 147.24517 185.47358 147.59375 178.18135 147.59375 159.8125 C 147.59375 136.62747 147.44547 134.43821 145.84375 133.78125 C 144.65447 133.29345 141.9886 133.05975 139.03125 133.03125 C 138.41513 133.02525 137.78714 133.01945 137.15625 133.03125 z M 139.1875 136.6875 C 141.90959 136.72535 143.31596 137.0657 143.75 137.75 C 144.20331 138.46464 144.5545 143.21139 144.5625 148.3125 C 144.5774 157.35427 144.53194 157.61175 142.03125 158.5625 C 138.89256 159.75583 133.87997 159.73143 130.8125 158.5 C 128.6122 157.61667 128.5379 157.20023 128.8125 147.3125 L 129.09375 137.0625 L 136 136.75 C 137.21307 136.6975 138.28014 136.6749 139.1875 136.6875 z M 134.96875 137.65625 C 130.24931 137.68992 129.59375 139.4712 129.59375 147.09375 C 129.59375 157.46355 129.75441 157.69728 136.46875 157.34375 L 142.09375 157.0625 L 142.09375 147.5625 L 142.09375 138.0625 L 137.25 137.75 C 136.40078 137.6959 135.64296 137.65125 134.96875 137.65625 z M 134 162.6875 C 134.90736 162.6749 135.97443 162.6975 137.1875 162.75 L 144.09375 163.0625 L 144.375 173.03125 C 144.62177 181.55565 144.41462 183.20116 142.9375 184.28125 C 141.19519 185.55525 134.37856 185.87258 131.59375 184.8125 C 130.76875 184.49845 129.74783 183.76128 129.34375 183.15625 C 128.3367 181.64852 128.41618 165.36013 129.4375 163.75 C 129.87154 163.06574 131.27791 162.7254 134 162.6875 z M 207.625 164.5625 C 205.67205 164.5625 205.59375 165.14244 205.59375 181.875 C 205.59375 191.40834 205.90312 199.52812 206.28125 199.90625 C 208.52634 202.15134 209.11869 198.80196 209.375 182.21875 C 209.6402 165.06068 209.58974 164.5625 207.625 164.5625 z M 65.0625 166.6875 C 64.974564 166.68009 64.89143 166.7012 64.8125 166.71875 C 63.707487 166.96478 63.59375 169.61128 63.59375 182.8125 C 63.59375 191.83616 63.903125 199.52812 64.28125 199.90625 C 66.537897 202.16289 67.09375 198.90326 67.09375 183.46875 C 67.09375 168.64193 66.925594 167.05464 65.34375 166.75 C 65.243172 166.7309 65.150436 166.69491 65.0625 166.6875 z M 162.09375 189.65625 C 169.57857 189.49732 173.94733 194.05268 170.0625 197.9375 C 167.8939 200.1061 155.38801 200.2493 153.625 198.125 C 152.96791 197.33326 152.60401 195.43026 152.78125 193.90625 C 153.13987 190.82264 155.35041 189.79944 162.09375 189.65625 z M 91.21875 190.15625 C 97.30904 190.15625 98.59375 192.80286 98.59375 205.21875 C 98.59375 214.9642 98.41742 215.80133 96.125 218.09375 C 93.5435 220.67525 91.55299 221.03397 87.8125 219.53125 C 84.40847 218.16369 83.38681 214.08228 83.75 203.34375 C 84.12876 192.14494 85.27495 190.15625 91.21875 190.15625 z M 112.84375 190.5 C 116.42052 190.53591 120.02982 191.12357 121.03125 192.125 C 125.16135 196.2551 121.04568 200.59313 113.125 200.46875 C 110.35988 200.42535 107.41875 200.12655 106.59375 199.8125 C 103.14662 198.5003 102.46618 193.23413 105.53125 191.59375 C 106.69471 190.97109 108.90511 190.61365 111.3125 190.53125 C 111.81404 190.51415 112.33278 190.495 112.84375 190.5 z M 90.5625 191.625 C 89.26246 191.71802 88.06296 192.2183 87.15625 193.125 C 84.88124 195.40001 84.88124 214.69374 87.15625 216.96875 C 89.01591 218.82841 93.67598 219.04277 95.375 217.34375 C 96.1663 216.55245 96.59375 212.30319 96.59375 204.875 C 96.59375 194.76127 96.39286 193.52316 94.65625 192.59375 C 93.26879 191.8512 91.86254 191.532 90.5625 191.625 z M 159.40625 191.6875 C 156.75087 191.72755 155.6516 192.11718 154.9375 193.09375 C 152.45059 196.4948 154.36833 197.65443 161.96875 197.34375 C 168.82669 197.06342 169.09375 196.96807 169.09375 194.5625 C 169.09375 192.18452 168.78328 192.03873 162.625 191.75 C 161.34826 191.6905 160.29138 191.6741 159.40625 191.6875 z M 109.34375 192.6875 C 106.45314 192.71692 105.58524 193.08869 105.1875 194.125 C 103.94438 197.3645 106.47781 198.65489 113.5 198.34375 C 119.78756 198.06517 120.09375 197.94682 120.09375 195.5625 C 120.09375 193.15693 119.82669 193.03033 112.96875 192.75 C 111.49255 192.6895 110.30729 192.6775 109.34375 192.6875 z M 183.15625 195.15625 C 186.24147 195.03568 189.68772 196.84559 191.125 199.625 C 195.80276 208.67077 188.39863 218.45689 179.96875 214.375 C 173.1954 211.09523 173.95434 198.24565 181.09375 195.53125 C 181.73853 195.28611 182.44428 195.18405 183.15625 195.15625 z M 137.125 195.5625 C 141.11052 195.5625 142.29013 196.04013 145.1875 198.9375 C 147.9748 201.7248 148.59375 203.11936 148.59375 206.5625 C 148.59375 210.00564 147.9748 211.36895 145.1875 214.15625 C 142.47865 216.8651 141.00488 217.55545 137.9375 217.53125 C 135.82 217.51455 133.19375 217.01117 132.09375 216.40625 C 128.29851 214.31912 126.648 211.21799 126.625 206.21875 C 126.6065 202.20085 127.06685 200.9019 129.5 198.46875 C 131.89743 196.07131 133.2891 195.5625 137.125 195.5625 z M 195.59375 201.5625 L 195.59375 210.90625 C 195.59375 219.37668 195.29231 220.78677 192.59375 225.84375 C 189.89798 230.89551 189.7833 231.5958 191.1875 233 C 193.1576 234.9701 212.46395 235.2548 214.375 233.34375 C 215.19617 232.52258 215.59375 227.63653 215.59375 217.875 C 215.59375 201.01504 215.97391 201.5625 203.65625 201.5625 L 195.59375 201.5625 z M 64.03125 201.65625 C 57.175634 201.85029 57.087761 204.20347 56.75 217.03125 C 56.286208 234.6456 56.214272 234.5625 70.5625 234.5625 C 80.177269 234.5625 81.631703 234.34117 82.5 232.71875 C 83.24795 231.32119 82.83968 229.68049 80.84375 225.96875 C 78.54414 221.69225 78.21389 219.84748 78.15625 211.5625 L 78.09375 202.0625 L 69.59375 201.78125 C 68.045586 201.72935 66.686805 201.66425 65.5 201.65625 C 64.980773 201.65225 64.488291 201.64335 64.03125 201.65625 z M 161.28125 202.59375 C 164.71132 202.58606 168.2042 203.59102 169.75 205.5 C 172.09181 208.39214 172.14563 214.65686 169.84375 217.46875 C 168.04544 219.66546 159.76297 221.19149 156.59375 219.90625 C 152.89564 218.40653 151.59375 216.20384 151.59375 211.46875 C 151.59375 207.4554 152.03115 206.35683 154.34375 204.53125 C 155.99428 203.22831 158.61342 202.59975 161.28125 202.59375 z M 113.0625 203.375 C 116.41398 203.35391 119.7552 204.08341 121.09375 205.5625 C 123.78464 208.5359 123.46573 216.43036 120.5625 218.78125 C 117.46402 221.29025 108.60353 221.1887 105.4375 218.625 C 102.36438 216.13654 102.12574 208.83227 105 205.65625 C 106.35388 204.16022 109.71102 203.3961 113.0625 203.375 z M 113.09375 204.5625 C 107.65105 204.5625 104.59375 207.10068 104.59375 211.625 C 104.59375 217.45053 105.95283 218.5625 113.09375 218.5625 C 118.42708 218.5625 119.70382 218.22945 120.5625 216.625 C 122.22928 213.51058 121.76741 208.73616 119.59375 206.5625 C 118.18634 205.15509 116.26042 204.5625 113.09375 204.5625 z M 159.5625 204.5625 C 156.35 204.66306 155.27638 205.18204 154.15625 206.78125 C 152.01108 209.84392 152.20124 214.16999 154.59375 216.5625 C 157.12885 219.0976 165.65296 219.34704 168.03125 216.96875 C 168.91661 216.08339 169.59375 213.73566 169.59375 211.5625 C 169.59375 206.19468 167.59185 204.5625 161.0625 204.5625 C 160.51031 204.5625 160.02143 204.5481 159.5625 204.5625 z M 205.78125 210.6875 C 207.93339 210.62083 208.82097 211.08729 209.59375 212.53125 C 210.21019 213.68308 210.43628 215.51453 210.09375 216.59375 C 209.5967 218.15983 208.55464 218.5625 204.96875 218.5625 L 200.46875 218.5625 L 200.78125 214.8125 C 201.07367 211.27937 201.30974 211.03875 204.78125 210.75 C 205.14418 210.7198 205.4738 210.6975 205.78125 210.6875 z M 73.59375 211.4375 L 73.59375 215 C 73.59375 218.5501 73.587885 218.5625 69.0625 218.5625 C 66.038699 218.5625 64.337894 218.08698 63.96875 217.125 C 62.613548 213.5934 63.995128 212.06171 68.84375 211.75 L 73.59375 211.4375 z M 80.53125 222.53125 L 82.21875 225.28125 C 84.44659 228.88069 90.74548 235.5625 91.90625 235.5625 C 92.40347 235.5625 92.52135 234.83874 92.1875 233.96875 C 91.85366 233.09877 91.59375 231.15615 91.59375 229.65625 C 90.988833 226.53538 89.662769 225.01093 92.15625 225.5625 L 92.53125 225.625 L 93.0625 229.125 C 94.21172 236.78858 94.354276 236.93911 102.78125 237.40625 C 105.46244 237.55488 105.48336 237.52036 104.90625 232.3125 C 104.67974 230.26848 104.35697 228.38286 104.0625 227.3125 L 106.28125 227.625 L 106.59375 227.65625 L 106.59375 231.9375 C 106.59375 238.34629 106.61325 238.34916 117.59375 238.78125 L 124.09375 239.0625 L 124.40625 233.6875 C 124.51212 231.81525 124.52857 230.18778 124.5 229.15625 L 126.4375 229.15625 L 126.59375 229.15625 L 126.59375 233.375 C 126.59375 236.03334 126.88333 238.50834 127.25 238.875 C 128.44958 240.07458 144.10272 239.61603 145.375 238.34375 C 146.035 237.68375 146.59375 235.20875 146.59375 232.84375 L 146.59375 228.78125 L 148.5 228.75 L 148.59375 228.75 L 148.59375 233.0625 L 148.59375 238.5625 L 154.84375 238.53125 C 158.28125 238.52325 161.70615 238.1392 162.46875 237.65625 C 163.23382 237.17173 164.09609 234.4026 164.375 231.5 L 164.75 227.625 L 166 227.53125 C 166.88722 227.38852 165.59599 231.79094 165.59375 232.65625 L 165.59375 237.78125 L 171.34375 237.0625 C 174.50625 236.6683 177.40842 235.81917 177.8125 235.1875 C 178.21658 234.55582 178.5545 233.33125 178.5625 232.4375 C 178.5705 231.54375 178.85599 229.43881 179.1875 227.78125 L 179.625 225.5625 C 182.59948 225.05146 180.46095 229.87694 180.0625 232.4375 L 179.375 236.84375 L 182.40625 234.6875 C 184.08043 233.49538 186.74808 230.83333 188.34375 228.78125 C 192.00556 224.07205 192.93003 222.81225 191.34375 222.78125 C 191.27745 222.78025 191.16863 222.8102 191.09375 222.8125 L 191.09375 222.71875 L 190.34375 222.84375 C 189.94308 222.89255 189.47668 222.97128 188.9375 223.0625 C 183.00645 224.01355 176.75386 224.93018 170.9375 225.84375 C 154.8666 226.98754 138.29823 228.43322 124.0625 228 C 111.19234 227.55396 97.143309 224.40419 84.8125 223.15625 L 80.53125 222.53125 z M 187.96875 233 C 187.20448 232.99728 186.24667 233.47372 185.1875 234.46875 C 182.61206 236.88825 177.6058 238.5625 172.90625 238.5625 C 171.14758 238.5625 169.47034 238.91736 169.1875 239.375 C 168.44651 240.57395 180.77261 269.77909 181.625 268.84375 C 182.01681 268.41382 183.97239 261.0875 185.96875 252.5625 C 187.96511 244.0375 189.59975 236.30504 189.59375 235.375 C 189.58413 233.81983 188.95138 233.003 187.96875 233 z M 85.0625 233.28125 C 83.8012 233.24421 82.5876 234.51294 82.5625 236.4375 C 82.5195 239.73035 90.04446 268.5581 90.875 268.28125 C 91.34734 268.12381 94.35875 261.62817 97.5625 253.84375 C 100.76625 246.05932 103.12616 239.43866 102.8125 239.125 C 102.49884 238.81133 100.53225 238.5625 98.40625 238.5625 C 93.94484 238.5625 88.71652 236.59641 86.71875 234.1875 C 86.22085 233.58713 85.63582 233.29805 85.0625 233.28125 z M 63.59375 236.5625 C 61.39375 236.5625 59.59375 236.76023 59.59375 237 C 59.59375 237.39343 52.182959 265.58995 50.96875 269.8125 C 50.50203 271.43557 51.846798 271.5625 69.53125 271.5625 C 80.018316 271.5625 88.59375 271.26952 88.59375 270.90625 C 88.59375 270.18992 81.80717 241.18043 80.96875 238.3125 C 80.56386 236.92749 79.330302 236.5625 75.09375 236.5625 L 69.75 236.5625 L 69.09375 243.3125 C 68.161615 252.92447 67.74686 253.20708 67.65625 244.3125 L 67.59375 236.5625 L 63.59375 236.5625 z M 191.65625 236.5625 L 190.6875 240.3125 C 187.20405 253.57282 183.59375 268.67638 183.59375 270 C 183.59375 271.35683 186.05606 271.5625 202.65625 271.5625 C 220.34609 271.5625 221.69873 271.43607 221.21875 269.8125 C 220.9342 268.85 218.80825 260.975 216.5 252.3125 L 212.28125 236.5625 L 208.4375 236.5625 L 204.59375 236.5625 L 204.46875 245.8125 C 204.36129 253.75411 204.2187 254.42599 203.53125 250.5625 C 203.09086 248.0875 202.69705 243.925 202.65625 241.3125 L 202.59375 236.5625 L 197.125 236.5625 L 191.65625 236.5625 z "
     id="path3391" />
  <g
     id="g3799">
    <path
       id="path3433"
       d="M 136.59375 20.5625 C 121.69165 20.5625 109.16876 25.84609 99.75 36.125 C 91.35148 45.290512 83.40433 62.55488 81.875 74.96875 L 81.28125 79.875 L 84.21875 79.28125 C 85.83431 78.95814 93.769106 78.15414 101.875 77.5 C 119.30822 76.09315 168.46579 76.7398 182.375 78.5625 C 187.48942 79.2327 191.9344 79.53435 192.25 79.21875 C 193.39372 78.07503 188.23756 60.214128 184.59375 52.71875 C 174.02053 30.969522 158.46748 20.5625 136.59375 20.5625 z M 122.09375 24.0625 L 136.5625 24.0625 L 151 24.0625 L 152.78125 29.875 C 153.757 33.080017 154.8604 39.234325 155.21875 43.53125 C 155.82688 50.823272 155.72556 51.361568 153.8125 51.96875 C 151.19987 52.797966 119.82152 52.30025 118.375 51.40625 C 116.86437 50.472635 118.18619 35.845987 120.375 29.25 L 122.09375 24.0625 z M 107.90625 52.5625 C 110.67261 52.560563 113.71864 53.009312 114.375 53.8125 C 114.93683 54.5 115.55698 59.3375 115.75 64.5625 L 116.09375 74.0625 L 107.84375 74.34375 C 100.47373 74.60321 99.59275 74.44325 99.59375 72.84375 C 99.59575 70.15693 102.40358 54.647966 103.09375 53.53125 C 103.42226 52.999701 104.94415 52.68411 106.75 52.59375 C 107.12622 52.57493 107.51106 52.562777 107.90625 52.5625 z M 96.46875 52.59375 C 97.70141 52.605531 98.73069 52.967681 99.15625 53.65625 C 100.12347 55.22125 97.56218 73.33611 96.21875 74.4375 C 95.60075 74.94416 92.44079 75.69493 89.21875 76.09375 C 83.78579 76.76623 83.42226 76.67986 83.9375 74.9375 C 84.24306 73.90419 85.22666 70.14436 86.125 66.59375 C 88.10673 58.76113 89.97743 54.960515 92.53125 53.59375 C 93.78781 52.921257 95.23609 52.58197 96.46875 52.59375 z M 149.25 53.59375 C 152.83331 53.617661 154.02876 54.102862 155.84375 55.53125 C 158.29104 57.457265 158.59375 58.35006 158.59375 63.625 C 158.59375 72.37931 157.05605 73.5625 145.65625 73.5625 C 137.20289 73.5625 136.61877 73.4012 134.65625 70.90625 C 131.9001 67.40238 131.81949 59.71654 134.5 56.40625 C 136.18143 54.329775 137.41548 54.019365 144.75 53.71875 C 146.58444 53.64356 148.05556 53.58575 149.25 53.59375 z M 124.8125 54.625 C 126.41771 54.609398 128.00721 55.100979 129.03125 56.125 C 131.39272 58.48647 131.18596 69.70174 128.75 71.90625 C 126.33483 74.09194 122.31067 73.99577 120.25 71.71875 C 117.82845 69.04297 117.92964 58.46005 120.40625 56.21875 C 121.5612 55.173536 123.20729 54.6406 124.8125 54.625 z M 181.34375 54.8125 C 181.94826 54.747392 182.71022 54.944316 183.6875 55.5 C 185.27539 56.859247 190.59375 72.8385 190.59375 76.25 C 190.59375 77.6238 186.45358 77.8241 181.09375 76.6875 C 178.48735 76.13479 178.0509 75.56659 177.78125 72.3125 C 177.42921 68.06396 176.68045 67.70424 174.09375 70.5625 C 171.60795 73.30928 167.33448 73.06378 163.65625 69.96875 C 161.18634 67.89047 160.59375 66.60847 160.59375 63.46875 C 160.73618 53.286442 170.72582 52.548912 177.03125 60.09375 C 178.98187 57.568943 179.53023 55.007825 181.34375 54.8125 z "
       style="fill:#b3b3b3" />
    <path
       id="path3367"
       d="m 196.30173,112.40078 c 0.22478,-0.0511 0.54716,0.80795 1,2.15625 2.12619,6.33056 2.78977,21.04377 1.28125,27.875 -2.41048,10.91575 -2.9436,8.67696 -2.875,-11.875 0.0451,-13.51298 0.0992,-18.04388 0.59375,-18.15625 z"
       style="fill:#b3b3b3" />
    <path
       id="path3365"
       d="m 76.770476,115.02578 c 0.533333,0.16039 0.709619,4.47053 0.75,15.78125 0.03486,9.7625 -0.15618,17.75 -0.40625,17.75 -2.092073,0 -2.767124,-28.5468 -0.78125,-33 0.163942,-0.36763 0.314423,-0.56826 0.4375,-0.53125 z"
       style="fill:#b3b3b3" />
    <path
       id="path3265"
       d="M 145.78125 240.5625 C 142.84987 240.64308 133.15697 241.35555 123.59375 241.5625 C 123.59375 242.2786 124.36599 245.34107 125.3125 248.34375 C 126.69855 252.7408 127.6797 254.08825 130.3125 255.34375 C 132.11042 256.20112 133.01361 257.99104 133.34375 259.03125 C 134.05572 261.27445 132.37919 264.14428 129.21875 264.9375 C 125.23559 265.93721 120.38917 279.008 119.15625 292.0625 C 118.59922 297.96046 118.65043 297.90093 121.28125 288.5625 C 122.75323 283.3375 124.44318 278.71178 125.03125 278.3125 C 125.61932 277.91322 130.50386 277.62955 135.90625 277.65625 C 143.8157 277.69525 146.08459 278.02209 147.46875 279.40625 C 148.41417 280.35167 150.48498 286.06656 152.09375 292.09375 C 155.489 304.81391 156.35368 303.97497 154.125 290.125 C 151.55279 274.14021 147.49678 264.5625 143.28125 264.5625 C 138.7223 264.29941 136.94895 257.51463 142.96875 255.875 C 143.40454 255.70661 144.1514 255.52823 145.3125 255.34375 C 146.2086 255.20138 147.11586 251.5875 148.09375 248.5625 C 149.07163 245.5375 150.09001 242.5 150.34375 241.8125 C 150.6742 240.91713 149.38078 240.5625 145.78125 240.5625 z M 128.65625 256.6875 C 128.246 256.74658 127.83409 256.91528 127.4375 257.1875 C 126.15751 258.14291 125.09549 260.65799 126.78125 262.34375 C 128.14337 263.70587 129.68158 263.7333 131 262.9375 C 134.30664 260.61353 131.52801 256.27393 128.65625 256.6875 z M 142.9375 256.9375 C 142.22797 256.90911 141.4554 257.14168 140.625 257.71875 C 139.42181 258.59507 139.35238 260.75863 140.78125 262.1875 C 141.77801 263.18425 143.12961 263.51878 144.46875 263.09375 C 147.59998 261.91122 146.01214 257.06051 142.9375 256.9375 z M 135.59375 279.4375 L 130.4375 279.75 L 125.25 280.0625 L 120.4375 298.5625 C 117.78376 308.7375 115.60075 317.4 115.59375 317.8125 C 115.58675 318.225 119.19375 318.5625 123.59375 318.5625 L 131.59375 318.5625 L 131.59375 314.125 C 131.59375 307.31915 132.98459 304.5625 136.4375 304.5625 C 140.35944 304.5625 141.4158 306.14312 141.78125 312.59375 L 142.09375 318.0625 L 149.875 318.34375 L 157.65625 318.625 L 156.96875 315.84375 C 156.58592 314.30782 154.18823 305.6375 151.65625 296.5625 L 147.0625 280.0625 L 142.375 279.75 L 137.6875 279.4375 L 137.0625 283.25 C 136.065 289.20392 135.74135 289.42726 135.65625 284.25 L 135.59375 279.4375 z M 135.71875 306.5625 C 133.79008 306.66554 133.72814 307.41423 133.4375 312.5625 L 133.09375 318.5625 L 136.96875 318.5625 L 140.84375 318.5625 L 140.21875 314.8125 C 139.87784 312.75 139.59975 310.05 139.59375 308.8125 C 139.58475 306.99694 139.03657 306.5625 136.6875 306.5625 C 136.33076 306.5625 135.99427 306.5478 135.71875 306.5625 z "
       style="fill:#b3b3b3" />
  </g>
</svg>
